<?xml version="1.0" encoding="UTF-8" standalone="no"?>
<!DOCTYPE svg PUBLIC "-//W3C//DTD SVG 1.1//EN" "http://www.w3.org/Graphics/SVG/1.1/DTD/svg11.dtd">
<svg width="100%" height="100%" viewBox="0 0 800 400" version="1.1" xmlns="http://www.w3.org/2000/svg" xmlns:xlink="http://www.w3.org/1999/xlink" xml:space="preserve" xmlns:serif="http://www.serif.com/" style="fill-rule:evenodd;clip-rule:evenodd;stroke-linecap:round;stroke-linejoin:round;stroke-miterlimit:1.5;">
    <g>
        <g>
            <g transform="matrix(0.860899,0,0,0.755406,90.5902,-9.64492)">
                <path d="M358.973,165.509C411.16,165.509 456.936,186.914 482.418,218.984" style="fill:none;stroke:black;stroke-width:5.56px;"/>
            </g>
            <g transform="matrix(0.860899,0,0,0.755406,90.5902,-9.64492)">
                <path d="M483.498,334.687C458.242,367.522 411.905,389.543 358.973,389.543C306.072,389.543 259.758,367.548 234.493,334.743" style="fill:none;stroke:black;stroke-width:5.56px;"/>
            </g>
            <g transform="matrix(0.860899,0,0,0.755406,90.5902,-9.64492)">
                <path d="M234.493,220.309C259.758,187.505 306.072,165.509 358.973,165.509" style="fill:none;stroke:black;stroke-width:5.56px;"/>
            </g>
            <g transform="matrix(1.27028e-16,-0.414903,0.414903,1.27028e-16,304.371,145.916)">
                <path d="M72.739,205.788L96.544,253.397L48.935,253.397L72.739,205.788Z"/>
            </g>
            <g transform="matrix(1.27028e-16,0.414903,0.414903,-1.27028e-16,304.371,254.084)">
                <path d="M72.739,205.788L96.544,253.397L48.935,253.397L72.739,205.788Z"/>
            </g>
        </g>
        <g>
            <g transform="matrix(0.860899,0,0,1.16762,90.5902,-124.045)">
                <path d="M222.633,239.748C242.687,196.488 296.191,165.509 358.973,165.509C422.141,165.509 475.915,196.869 495.679,240.545" style="fill:none;stroke:black;stroke-width:4.39px;"/>
            </g>
            <g transform="matrix(0.860899,0,0,1.16762,90.5902,-124.045)">
                <path d="M495.679,314.507C475.915,358.183 422.141,389.543 358.973,389.543C296.191,389.543 242.687,358.564 222.633,315.304" style="fill:none;stroke:black;stroke-width:4.39px;"/>
            </g>
            <g transform="matrix(1.27028e-16,0.414903,0.414903,-1.27028e-16,304.371,300.613)">
                <path d="M72.739,205.788L96.544,253.397L48.935,253.397L72.739,205.788Z"/>
            </g>
            <g transform="matrix(1.27028e-16,-0.414903,0.414903,1.27028e-16,304.371,98.9408)">
                <path d="M72.739,205.788L96.544,253.397L48.935,253.397L72.739,205.788Z"/>
            </g>
        </g>
        <g>
            <g>
                <g transform="matrix(1.0408,0,0,0.945716,26.0086,-136.848)">
                    <path d="M358.973,165.509C438.888,165.509 503.769,215.702 503.769,277.526C503.769,289.009 501.53,300.091 497.373,310.525" style="fill:none;stroke:black;stroke-width:4.53px;"/>
                </g>
                <g transform="matrix(1.0408,0,0,0.945716,26.0086,-136.848)">
                    <path d="M220.574,310.525C216.417,300.091 214.178,289.009 214.178,277.526C214.178,215.702 279.059,165.509 358.973,165.509" style="fill:none;stroke:black;stroke-width:4.53px;"/>
                </g>
                <g transform="matrix(1.27028e-16,-0.414903,0.414903,1.27028e-16,304.371,49.7469)">
                    <path d="M72.739,205.788L96.544,253.397L48.935,253.397L72.739,205.788Z"/>
                </g>
            </g>
            <g>
                <g transform="matrix(1.0408,0,0,0.945716,26.0086,14.4638)">
                    <path d="M495.735,240.669C500.94,252.213 503.769,264.616 503.769,277.526C503.769,339.35 438.888,389.543 358.973,389.543C279.059,389.543 214.178,339.35 214.178,277.526C214.178,264.616 217.007,252.213 222.212,240.669" style="fill:none;stroke:black;stroke-width:4.53px;"/>
                </g>
                <g transform="matrix(1.27028e-16,0.414903,0.414903,-1.27028e-16,304.371,352.681)">
                    <path d="M72.739,205.788L96.544,253.397L48.935,253.397L72.739,205.788Z"/>
                </g>
            </g>
        </g>
        <g>
            <g>
                <g transform="matrix(1.36325,0,0,1.06629,-34.5304,-224.483)">
                    <path d="M489.481,228.98C498.637,243.67 503.769,260.138 503.769,277.526C503.769,321.5 470.945,359.589 423.235,377.918" style="fill:none;stroke:black;stroke-width:3.68px;"/>
                </g>
                <g transform="matrix(0.285467,0.301087,-0.301087,0.285467,670.69,46.9187)">
                    <path d="M72.739,205.788L96.544,253.397L48.935,253.397L72.739,205.788Z"/>
                </g>
            </g>
            <g>
                <g transform="matrix(-1.36325,0,0,1.06629,833.79,-224.483)">
                    <path d="M489.481,228.98C498.637,243.67 503.769,260.138 503.769,277.526C503.769,321.666 470.696,359.877 422.692,378.126" style="fill:none;stroke:black;stroke-width:3.68px;"/>
                </g>
                <g transform="matrix(0.285467,-0.301087,-0.301087,-0.285467,225.295,221.803)">
                    <path d="M72.739,205.788L96.544,253.397L48.935,253.397L72.739,205.788Z"/>
                </g>
            </g>
        </g>
        <g>
            <g>
                <g transform="matrix(1.36325,0,0,-1.06629,-34.5304,627.021)">
                    <path d="M489.481,228.98C498.637,243.67 503.769,260.138 503.769,277.526C503.769,321.5 470.945,359.589 423.235,377.918" style="fill:none;stroke:black;stroke-width:3.68px;"/>
                </g>
                <g transform="matrix(0.285467,-0.301087,-0.301087,-0.285467,670.69,356.034)">
                    <path d="M72.739,205.788L96.544,253.397L48.935,253.397L72.739,205.788Z"/>
                </g>
            </g>
            <g>
                <g transform="matrix(-1.36325,0,0,-1.06629,833.79,627.021)">
                    <path d="M489.481,228.98C498.637,243.67 503.769,260.138 503.769,277.526C503.769,321.666 470.696,359.877 422.692,378.126" style="fill:none;stroke:black;stroke-width:3.68px;"/>
                </g>
                <g transform="matrix(0.285467,0.301087,-0.301087,0.285467,225.295,181.15)">
                    <path d="M72.739,205.788L96.544,253.397L48.935,253.397L72.739,205.788Z"/>
                </g>
            </g>
        </g>
        <g>
            <g>
                <g transform="matrix(-2.11354,-7.97288e-17,-6.23616e-17,-1.14393,1125.21,642.703)">
                    <path d="M489.481,228.98C498.637,243.67 503.769,260.138 503.769,277.526C503.769,325.029 465.464,365.666 411.467,381.943" style="fill:none;stroke:black;stroke-width:2.65px;"/>
                </g>
                <g transform="matrix(0.166636,0.37997,-0.37997,0.166636,219.085,172.205)">
                    <path d="M72.739,205.788L96.544,253.397L48.935,253.397L72.739,205.788Z"/>
                </g>
            </g>
            <g>
                <g transform="matrix(2.11354,-7.97288e-17,6.23616e-17,-1.14393,-327.091,642.703)">
                    <path d="M489.481,228.98C498.637,243.67 503.769,260.138 503.769,277.526C503.769,325.029 465.464,365.666 411.467,381.943" style="fill:none;stroke:black;stroke-width:2.65px;"/>
                </g>
                <g transform="matrix(0.166636,-0.37997,-0.37997,-0.166636,730.409,303.999)">
                    <path d="M72.739,205.788L96.544,253.397L48.935,253.397L72.739,205.788Z"/>
                </g>
            </g>
        </g>
        <g>
            <g>
                <g transform="matrix(-2.11354,7.97288e-17,-6.23616e-17,1.14393,1125.21,-246.031)">
                    <path d="M489.481,228.98C498.637,243.67 503.769,260.138 503.769,277.526C503.769,325.029 465.464,365.666 411.467,381.943" style="fill:none;stroke:black;stroke-width:2.65px;"/>
                </g>
                <g transform="matrix(0.166636,-0.37997,-0.37997,-0.166636,219.085,224.7)">
                    <path d="M72.739,205.788L96.544,253.397L48.935,253.397L72.739,205.788Z"/>
                </g>
            </g>
            <g>
                <g transform="matrix(2.11354,7.97288e-17,6.23616e-17,1.14393,-327.091,-246.031)">
                    <path d="M489.481,228.98C498.637,243.67 503.769,260.138 503.769,277.526C503.769,325.029 465.464,365.666 411.467,381.943" style="fill:none;stroke:black;stroke-width:2.65px;"/>
                </g>
                <g transform="matrix(0.166636,0.37997,-0.37997,0.166636,730.409,92.9058)">
                    <path d="M72.739,205.788L96.544,253.397L48.935,253.397L72.739,205.788Z"/>
                </g>
            </g>
        </g>
    </g>
    <g transform="matrix(1,0,0,1,208.403,137.37)">
        <g transform="matrix(6.12323e-17,1,-0.771448,4.72376e-17,416.644,-227.685)">
            <rect x="247.135" y="107.076" width="86.36" height="369.288" style="fill:none;stroke:black;stroke-width:10.08px;"/>
        </g>
        <g transform="matrix(1,0,0,1,0,1)">
            <g transform="matrix(1,0,0,1,0,-62.3695)">
                <g transform="matrix(1,0,0,1,-37.8997,-19.6996)">
                    <circle cx="104.356" cy="117.605" r="7.395"/>
                </g>
                <g transform="matrix(0.103367,1.49075e-17,-1.1641e-16,0.279854,1.81568,43.8503)">
                    <rect x="660.287" y="186.306" width="130.731" height="13.694"/>
                </g>
                <g transform="matrix(-7.83649e-17,0.183206,-0.179664,-7.71708e-17,112.467,-28.3083)">
                    <path d="M688.913,135.552L720.252,171.196L657.573,171.196L688.913,135.552Z"/>
                </g>
            </g>
            <g transform="matrix(1,0,0,1,32.9325,-62.3695)">
                <g transform="matrix(1,0,0,1,-37.8997,-19.6996)">
                    <circle cx="104.356" cy="117.605" r="7.395"/>
                </g>
                <g transform="matrix(0.103367,1.49075e-17,-1.1641e-16,0.279854,1.81568,43.8503)">
                    <rect x="660.287" y="186.306" width="130.731" height="13.694"/>
                </g>
                <g transform="matrix(-7.83649e-17,0.183206,-0.179664,-7.71708e-17,112.467,-28.3083)">
                    <path d="M688.913,135.552L720.252,171.196L657.573,171.196L688.913,135.552Z"/>
                </g>
            </g>
            <g transform="matrix(1,0,0,1,65.865,-62.3695)">
                <g transform="matrix(1,0,0,1,-37.8997,-19.6996)">
                    <circle cx="104.356" cy="117.605" r="7.395"/>
                </g>
                <g transform="matrix(0.103367,1.49075e-17,-1.1641e-16,0.279854,1.81568,43.8503)">
                    <rect x="660.287" y="186.306" width="130.731" height="13.694"/>
                </g>
                <g transform="matrix(-7.83649e-17,0.183206,-0.179664,-7.71708e-17,112.467,-28.3083)">
                    <path d="M688.913,135.552L720.252,171.196L657.573,171.196L688.913,135.552Z"/>
                </g>
            </g>
            <g transform="matrix(1,0,0,1,98.7975,-62.3695)">
                <g transform="matrix(1,0,0,1,-37.8997,-19.6996)">
                    <circle cx="104.356" cy="117.605" r="7.395"/>
                </g>
                <g transform="matrix(0.103367,1.49075e-17,-1.1641e-16,0.279854,1.81568,43.8503)">
                    <rect x="660.287" y="186.306" width="130.731" height="13.694"/>
                </g>
                <g transform="matrix(-7.83649e-17,0.183206,-0.179664,-7.71708e-17,112.467,-28.3083)">
                    <path d="M688.913,135.552L720.252,171.196L657.573,171.196L688.913,135.552Z"/>
                </g>
            </g>
            <g transform="matrix(1,0,0,1,131.73,-62.3695)">
                <g transform="matrix(1,0,0,1,-37.8997,-19.6996)">
                    <circle cx="104.356" cy="117.605" r="7.395"/>
                </g>
                <g transform="matrix(0.103367,1.49075e-17,-1.1641e-16,0.279854,1.81568,43.8503)">
                    <rect x="660.287" y="186.306" width="130.731" height="13.694"/>
                </g>
                <g transform="matrix(-7.83649e-17,0.183206,-0.179664,-7.71708e-17,112.467,-28.3083)">
                    <path d="M688.913,135.552L720.252,171.196L657.573,171.196L688.913,135.552Z"/>
                </g>
            </g>
            <g transform="matrix(1,0,0,1,164.662,-62.3695)">
                <g transform="matrix(1,0,0,1,-37.8997,-19.6996)">
                    <circle cx="104.356" cy="117.605" r="7.395"/>
                </g>
                <g transform="matrix(0.103367,1.49075e-17,-1.1641e-16,0.279854,1.81568,43.8503)">
                    <rect x="660.287" y="186.306" width="130.731" height="13.694"/>
                </g>
                <g transform="matrix(-7.83649e-17,0.183206,-0.179664,-7.71708e-17,112.467,-28.3083)">
                    <path d="M688.913,135.552L720.252,171.196L657.573,171.196L688.913,135.552Z"/>
                </g>
            </g>
            <g transform="matrix(1,0,0,1,197.595,-62.3695)">
                <g transform="matrix(1,0,0,1,-37.8997,-19.6996)">
                    <circle cx="104.356" cy="117.605" r="7.395"/>
                </g>
                <g transform="matrix(0.103367,1.49075e-17,-1.1641e-16,0.279854,1.81568,43.8503)">
                    <rect x="660.287" y="186.306" width="130.731" height="13.694"/>
                </g>
                <g transform="matrix(-7.83649e-17,0.183206,-0.179664,-7.71708e-17,112.467,-28.3083)">
                    <path d="M688.913,135.552L720.252,171.196L657.573,171.196L688.913,135.552Z"/>
                </g>
            </g>
            <g transform="matrix(1,0,0,1,230.527,-62.3695)">
                <g transform="matrix(1,0,0,1,-37.8997,-19.6996)">
                    <circle cx="104.356" cy="117.605" r="7.395"/>
                </g>
                <g transform="matrix(0.103367,1.49075e-17,-1.1641e-16,0.279854,1.81568,43.8503)">
                    <rect x="660.287" y="186.306" width="130.731" height="13.694"/>
                </g>
                <g transform="matrix(-7.83649e-17,0.183206,-0.179664,-7.71708e-17,112.467,-28.3083)">
                    <path d="M688.913,135.552L720.252,171.196L657.573,171.196L688.913,135.552Z"/>
                </g>
            </g>
        </g>
        <g transform="matrix(1,0,0,1,0,2.0207)">
            <g transform="matrix(1,0,0,1,16.062,-46.3075)">
                <g transform="matrix(1,0,0,1,-37.8997,-19.6996)">
                    <circle cx="104.356" cy="117.605" r="7.395"/>
                </g>
                <g transform="matrix(0.103367,1.49075e-17,-1.1641e-16,0.279854,1.81568,43.8503)">
                    <rect x="660.287" y="186.306" width="130.731" height="13.694"/>
                </g>
                <g transform="matrix(-7.83649e-17,0.183206,-0.179664,-7.71708e-17,112.467,-28.3083)">
                    <path d="M688.913,135.552L720.252,171.196L657.573,171.196L688.913,135.552Z"/>
                </g>
            </g>
            <g transform="matrix(1,0,0,1,48.9945,-46.3075)">
                <g transform="matrix(1,0,0,1,-37.8997,-19.6996)">
                    <circle cx="104.356" cy="117.605" r="7.395"/>
                </g>
                <g transform="matrix(0.103367,1.49075e-17,-1.1641e-16,0.279854,1.81568,43.8503)">
                    <rect x="660.287" y="186.306" width="130.731" height="13.694"/>
                </g>
                <g transform="matrix(-7.83649e-17,0.183206,-0.179664,-7.71708e-17,112.467,-28.3083)">
                    <path d="M688.913,135.552L720.252,171.196L657.573,171.196L688.913,135.552Z"/>
                </g>
            </g>
            <g transform="matrix(1,0,0,1,81.927,-46.3075)">
                <g transform="matrix(1,0,0,1,-37.8997,-19.6996)">
                    <circle cx="104.356" cy="117.605" r="7.395"/>
                </g>
                <g transform="matrix(0.103367,1.49075e-17,-1.1641e-16,0.279854,1.81568,43.8503)">
                    <rect x="660.287" y="186.306" width="130.731" height="13.694"/>
                </g>
                <g transform="matrix(-7.83649e-17,0.183206,-0.179664,-7.71708e-17,112.467,-28.3083)">
                    <path d="M688.913,135.552L720.252,171.196L657.573,171.196L688.913,135.552Z"/>
                </g>
            </g>
            <g transform="matrix(1,0,0,1,114.859,-46.3075)">
                <g transform="matrix(1,0,0,1,-37.8997,-19.6996)">
                    <circle cx="104.356" cy="117.605" r="7.395"/>
                </g>
                <g transform="matrix(0.103367,1.49075e-17,-1.1641e-16,0.279854,1.81568,43.8503)">
                    <rect x="660.287" y="186.306" width="130.731" height="13.694"/>
                </g>
                <g transform="matrix(-7.83649e-17,0.183206,-0.179664,-7.71708e-17,112.467,-28.3083)">
                    <path d="M688.913,135.552L720.252,171.196L657.573,171.196L688.913,135.552Z"/>
                </g>
            </g>
            <g transform="matrix(1,0,0,1,147.792,-46.3075)">
                <g transform="matrix(1,0,0,1,-37.8997,-19.6996)">
                    <circle cx="104.356" cy="117.605" r="7.395"/>
                </g>
                <g transform="matrix(0.103367,1.49075e-17,-1.1641e-16,0.279854,1.81568,43.8503)">
                    <rect x="660.287" y="186.306" width="130.731" height="13.694"/>
                </g>
                <g transform="matrix(-7.83649e-17,0.183206,-0.179664,-7.71708e-17,112.467,-28.3083)">
                    <path d="M688.913,135.552L720.252,171.196L657.573,171.196L688.913,135.552Z"/>
                </g>
            </g>
            <g transform="matrix(1,0,0,1,180.724,-46.3075)">
                <g transform="matrix(1,0,0,1,-37.8997,-19.6996)">
                    <circle cx="104.356" cy="117.605" r="7.395"/>
                </g>
                <g transform="matrix(0.103367,1.49075e-17,-1.1641e-16,0.279854,1.81568,43.8503)">
                    <rect x="660.287" y="186.306" width="130.731" height="13.694"/>
                </g>
                <g transform="matrix(-7.83649e-17,0.183206,-0.179664,-7.71708e-17,112.467,-28.3083)">
                    <path d="M688.913,135.552L720.252,171.196L657.573,171.196L688.913,135.552Z"/>
                </g>
            </g>
            <g transform="matrix(1,0,0,1,213.657,-46.3075)">
                <g transform="matrix(1,0,0,1,-37.8997,-19.6996)">
                    <circle cx="104.356" cy="117.605" r="7.395"/>
                </g>
                <g transform="matrix(0.103367,1.49075e-17,-1.1641e-16,0.279854,1.81568,43.8503)">
                    <rect x="660.287" y="186.306" width="130.731" height="13.694"/>
                </g>
                <g transform="matrix(-7.83649e-17,0.183206,-0.179664,-7.71708e-17,112.467,-28.3083)">
                    <path d="M688.913,135.552L720.252,171.196L657.573,171.196L688.913,135.552Z"/>
                </g>
            </g>
        </g>
        <g transform="matrix(1,0,0,1,0,2.28225)">
            <g transform="matrix(1,0,0,1,-0.759157,-29.4863)">
                <g transform="matrix(1,0,0,1,-37.8997,-19.6996)">
                    <circle cx="104.356" cy="117.605" r="7.395"/>
                </g>
                <g transform="matrix(0.103367,1.49075e-17,-1.1641e-16,0.279854,1.81568,43.8503)">
                    <rect x="660.287" y="186.306" width="130.731" height="13.694"/>
                </g>
                <g transform="matrix(-7.83649e-17,0.183206,-0.179664,-7.71708e-17,112.467,-28.3083)">
                    <path d="M688.913,135.552L720.252,171.196L657.573,171.196L688.913,135.552Z"/>
                </g>
            </g>
            <g transform="matrix(1,0,0,1,32.1733,-29.4863)">
                <g transform="matrix(1,0,0,1,-37.8997,-19.6996)">
                    <circle cx="104.356" cy="117.605" r="7.395"/>
                </g>
                <g transform="matrix(0.103367,1.49075e-17,-1.1641e-16,0.279854,1.81568,43.8503)">
                    <rect x="660.287" y="186.306" width="130.731" height="13.694"/>
                </g>
                <g transform="matrix(-7.83649e-17,0.183206,-0.179664,-7.71708e-17,112.467,-28.3083)">
                    <path d="M688.913,135.552L720.252,171.196L657.573,171.196L688.913,135.552Z"/>
                </g>
            </g>
            <g transform="matrix(1,0,0,1,65.1058,-29.4863)">
                <g transform="matrix(1,0,0,1,-37.8997,-19.6996)">
                    <circle cx="104.356" cy="117.605" r="7.395"/>
                </g>
                <g transform="matrix(0.103367,1.49075e-17,-1.1641e-16,0.279854,1.81568,43.8503)">
                    <rect x="660.287" y="186.306" width="130.731" height="13.694"/>
                </g>
                <g transform="matrix(-7.83649e-17,0.183206,-0.179664,-7.71708e-17,112.467,-28.3083)">
                    <path d="M688.913,135.552L720.252,171.196L657.573,171.196L688.913,135.552Z"/>
                </g>
            </g>
            <g transform="matrix(1,0,0,1,98.0383,-29.4863)">
                <g transform="matrix(1,0,0,1,-37.8997,-19.6996)">
                    <circle cx="104.356" cy="117.605" r="7.395"/>
                </g>
                <g transform="matrix(0.103367,1.49075e-17,-1.1641e-16,0.279854,1.81568,43.8503)">
                    <rect x="660.287" y="186.306" width="130.731" height="13.694"/>
                </g>
                <g transform="matrix(-7.83649e-17,0.183206,-0.179664,-7.71708e-17,112.467,-28.3083)">
                    <path d="M688.913,135.552L720.252,171.196L657.573,171.196L688.913,135.552Z"/>
                </g>
            </g>
            <g transform="matrix(1,0,0,1,130.971,-29.4863)">
                <g transform="matrix(1,0,0,1,-37.8997,-19.6996)">
                    <circle cx="104.356" cy="117.605" r="7.395"/>
                </g>
                <g transform="matrix(0.103367,1.49075e-17,-1.1641e-16,0.279854,1.81568,43.8503)">
                    <rect x="660.287" y="186.306" width="130.731" height="13.694"/>
                </g>
                <g transform="matrix(-7.83649e-17,0.183206,-0.179664,-7.71708e-17,112.467,-28.3083)">
                    <path d="M688.913,135.552L720.252,171.196L657.573,171.196L688.913,135.552Z"/>
                </g>
            </g>
            <g transform="matrix(1,0,0,1,163.903,-29.4863)">
                <g transform="matrix(1,0,0,1,-37.8997,-19.6996)">
                    <circle cx="104.356" cy="117.605" r="7.395"/>
                </g>
                <g transform="matrix(0.103367,1.49075e-17,-1.1641e-16,0.279854,1.81568,43.8503)">
                    <rect x="660.287" y="186.306" width="130.731" height="13.694"/>
                </g>
                <g transform="matrix(-7.83649e-17,0.183206,-0.179664,-7.71708e-17,112.467,-28.3083)">
                    <path d="M688.913,135.552L720.252,171.196L657.573,171.196L688.913,135.552Z"/>
                </g>
            </g>
            <g transform="matrix(1,0,0,1,196.836,-29.4863)">
                <g transform="matrix(1,0,0,1,-37.8997,-19.6996)">
                    <circle cx="104.356" cy="117.605" r="7.395"/>
                </g>
                <g transform="matrix(0.103367,1.49075e-17,-1.1641e-16,0.279854,1.81568,43.8503)">
                    <rect x="660.287" y="186.306" width="130.731" height="13.694"/>
                </g>
                <g transform="matrix(-7.83649e-17,0.183206,-0.179664,-7.71708e-17,112.467,-28.3083)">
                    <path d="M688.913,135.552L720.252,171.196L657.573,171.196L688.913,135.552Z"/>
                </g>
            </g>
            <g transform="matrix(1,0,0,1,229.768,-29.4863)">
                <g transform="matrix(1,0,0,1,-37.8997,-19.6996)">
                    <circle cx="104.356" cy="117.605" r="7.395"/>
                </g>
                <g transform="matrix(0.103367,1.49075e-17,-1.1641e-16,0.279854,1.81568,43.8503)">
                    <rect x="660.287" y="186.306" width="130.731" height="13.694"/>
                </g>
                <g transform="matrix(-7.83649e-17,0.183206,-0.179664,-7.71708e-17,112.467,-28.3083)">
                    <path d="M688.913,135.552L720.252,171.196L657.573,171.196L688.913,135.552Z"/>
                </g>
            </g>
        </g>
        <g transform="matrix(1,0,0,1,0,1)">
            <g transform="matrix(1,0,0,1,17.6058,-11.1213)">
                <g transform="matrix(1,0,0,1,-37.8997,-19.6996)">
                    <circle cx="104.356" cy="117.605" r="7.395"/>
                </g>
                <g transform="matrix(0.103367,1.49075e-17,-1.1641e-16,0.279854,1.81568,43.8503)">
                    <rect x="660.287" y="186.306" width="130.731" height="13.694"/>
                </g>
                <g transform="matrix(-7.83649e-17,0.183206,-0.179664,-7.71708e-17,112.467,-28.3083)">
                    <path d="M688.913,135.552L720.252,171.196L657.573,171.196L688.913,135.552Z"/>
                </g>
            </g>
            <g transform="matrix(1,0,0,1,50.5383,-11.1213)">
                <g transform="matrix(1,0,0,1,-37.8997,-19.6996)">
                    <circle cx="104.356" cy="117.605" r="7.395"/>
                </g>
                <g transform="matrix(0.103367,1.49075e-17,-1.1641e-16,0.279854,1.81568,43.8503)">
                    <rect x="660.287" y="186.306" width="130.731" height="13.694"/>
                </g>
                <g transform="matrix(-7.83649e-17,0.183206,-0.179664,-7.71708e-17,112.467,-28.3083)">
                    <path d="M688.913,135.552L720.252,171.196L657.573,171.196L688.913,135.552Z"/>
                </g>
            </g>
            <g transform="matrix(1,0,0,1,83.4708,-11.1213)">
                <g transform="matrix(1,0,0,1,-37.8997,-19.6996)">
                    <circle cx="104.356" cy="117.605" r="7.395"/>
                </g>
                <g transform="matrix(0.103367,1.49075e-17,-1.1641e-16,0.279854,1.81568,43.8503)">
                    <rect x="660.287" y="186.306" width="130.731" height="13.694"/>
                </g>
                <g transform="matrix(-7.83649e-17,0.183206,-0.179664,-7.71708e-17,112.467,-28.3083)">
                    <path d="M688.913,135.552L720.252,171.196L657.573,171.196L688.913,135.552Z"/>
                </g>
            </g>
            <g transform="matrix(1,0,0,1,116.403,-11.1213)">
                <g transform="matrix(1,0,0,1,-37.8997,-19.6996)">
                    <circle cx="104.356" cy="117.605" r="7.395"/>
                </g>
                <g transform="matrix(0.103367,1.49075e-17,-1.1641e-16,0.279854,1.81568,43.8503)">
                    <rect x="660.287" y="186.306" width="130.731" height="13.694"/>
                </g>
                <g transform="matrix(-7.83649e-17,0.183206,-0.179664,-7.71708e-17,112.467,-28.3083)">
                    <path d="M688.913,135.552L720.252,171.196L657.573,171.196L688.913,135.552Z"/>
                </g>
            </g>
            <g transform="matrix(1,0,0,1,149.336,-11.1213)">
                <g transform="matrix(1,0,0,1,-37.8997,-19.6996)">
                    <circle cx="104.356" cy="117.605" r="7.395"/>
                </g>
                <g transform="matrix(0.103367,1.49075e-17,-1.1641e-16,0.279854,1.81568,43.8503)">
                    <rect x="660.287" y="186.306" width="130.731" height="13.694"/>
                </g>
                <g transform="matrix(-7.83649e-17,0.183206,-0.179664,-7.71708e-17,112.467,-28.3083)">
                    <path d="M688.913,135.552L720.252,171.196L657.573,171.196L688.913,135.552Z"/>
                </g>
            </g>
            <g transform="matrix(1,0,0,1,182.268,-11.1213)">
                <g transform="matrix(1,0,0,1,-37.8997,-19.6996)">
                    <circle cx="104.356" cy="117.605" r="7.395"/>
                </g>
                <g transform="matrix(0.103367,1.49075e-17,-1.1641e-16,0.279854,1.81568,43.8503)">
                    <rect x="660.287" y="186.306" width="130.731" height="13.694"/>
                </g>
                <g transform="matrix(-7.83649e-17,0.183206,-0.179664,-7.71708e-17,112.467,-28.3083)">
                    <path d="M688.913,135.552L720.252,171.196L657.573,171.196L688.913,135.552Z"/>
                </g>
            </g>
            <g transform="matrix(1,0,0,1,215.201,-11.1213)">
                <g transform="matrix(1,0,0,1,-37.8997,-19.6996)">
                    <circle cx="104.356" cy="117.605" r="7.395"/>
                </g>
                <g transform="matrix(0.103367,1.49075e-17,-1.1641e-16,0.279854,1.81568,43.8503)">
                    <rect x="660.287" y="186.306" width="130.731" height="13.694"/>
                </g>
                <g transform="matrix(-7.83649e-17,0.183206,-0.179664,-7.71708e-17,112.467,-28.3083)">
                    <path d="M688.913,135.552L720.252,171.196L657.573,171.196L688.913,135.552Z"/>
                </g>
            </g>
        </g>
    </g>
</svg>
